<?xml version="1.0" standalone="no"?>
<!DOCTYPE svg PUBLIC "-//W3C//DTD SVG 1.1//EN" "http://www.w3.org/Graphics/SVG/1.1/DTD/svg11.dtd"><svg t="1737125133775"
    class="icon" viewBox="0 0 1024 1024" version="1.1" xmlns="http://www.w3.org/2000/svg" p-id="6413"
    xmlns:xlink="http://www.w3.org/1999/xlink" width="128" height="128">
    <path
        d="M602.144 64a16 16 0 0 1 10.688 4.096l277.856 249.28a16 16 0 0 1 5.312 11.904v137.92a12.8 12.8 0 0 1-12.8 12.8h-38.4a12.8 12.8 0 0 1-12.8-12.8v-82.016h-160a96 96 0 0 1-96-96V128H224a32 32 0 0 0-32 32v704a32 32 0 0 0 32 32h179.2c7.04 0 12.8 5.76 12.8 12.8v38.4a12.8 12.8 0 0 1-12.8 12.8H224a96 96 0 0 1-96-96V160a96 96 0 0 1 96-96h378.144z m146.464 501.504a12.8 12.8 0 0 1 7.68 2.56l146.88 110.208a12.8 12.8 0 0 1 0.032 20.48l-147.168 110.4a12.8 12.8 0 0 1-20.48-10.24l0.064-78.592A177.12 177.12 0 0 0 576 896.576V928a32 32 0 0 1-64 0v-31.424a241.12 241.12 0 0 1 223.744-240.48l0.064-77.792c0-7.072 5.76-12.8 12.8-12.8zM563.2 544c7.04 0 12.8 5.76 12.8 12.8v38.4a12.8 12.8 0 0 1-12.8 12.8H300.8a12.8 12.8 0 0 1-12.8-12.8v-38.4c0-7.04 5.76-12.8 12.8-12.8h262.4z m-64-192c7.04 0 12.8 5.76 12.8 12.8v38.4a12.8 12.8 0 0 1-12.8 12.8H300.8a12.8 12.8 0 0 1-12.8-12.8v-38.4c0-7.04 5.76-12.8 12.8-12.8h198.4z m140.768-173.568L640 289.216a32 32 0 0 0 32 32l127.104-0.032-159.136-142.752z"
        p-id="6414" fill="#d0d0d0cc"></path>
</svg>